<svg xmlns="http://www.w3.org/2000/svg" viewBox="0 0 378.53 364.89"><defs><style>.cls-1{fill:#ffffff;}</style></defs><g id="Layer_2" data-name="Layer 2"><g id="Layer_1-2" data-name="Layer 1"><g id="_Radial_Repeat_" data-name="&lt;Radial Repeat&gt;"><polygon class="cls-1" points="206.09 271.39 232.77 178.94 312.88 248.39 286.19 340.84 206.09 271.39"/><polygon class="cls-1" points="99 295.44 125.69 202.99 205.79 272.44 179.11 364.89 99 295.44"/></g><g id="_Radial_Repeat_2" data-name="&lt;Radial Repeat&gt;"><polygon class="cls-1" points="100.2 120.22 166.92 189.55 66.72 224.2 0 154.87 100.2 120.22"/><polygon class="cls-1" points="132.92 15.45 199.64 84.78 99.44 119.43 32.72 50.1 132.92 15.45"/></g><g id="_Radial_Repeat_3" data-name="&lt;Radial Repeat&gt;"><polygon class="cls-1" points="284.06 104.1 190.66 127.21 210.75 23.12 304.16 0 284.06 104.1"/><polygon class="cls-1" points="358.43 184.81 265.03 207.93 285.13 103.83 378.53 80.72 358.43 184.81"/></g></g></g></svg>